<?xml version="1.0" encoding="utf-8"?>
<!-- Generator: Adobe Illustrator 26.0.2, SVG Export Plug-In . SVG Version: 6.00 Build 0)  -->
<svg version="1.1" id="Layer_1" xmlns="http://www.w3.org/2000/svg" xmlns:xlink="http://www.w3.org/1999/xlink" x="0px" y="0px"
	 viewBox="0 0 1024 1024" style="enable-background:new 0 0 1024 1024;" xml:space="preserve">
<g transform="translate(0.000000,1024.000000) scale(0.100000,-0.100000)">
	<path d="M4922.9,10226.9c-18.1-5.3-65.9-19.8-106-32.9c-40.1-11.9-121.5-54-181-94.9c-99.5-68.5-113.7-73.8-210.7-83
		c-648.9-65.9-1234.4-258.3-1874.2-616.8c-614-344-1131-797.3-1571.7-1375.9l-103.4-135.7l-228.8-142.3
		c-125.4-77.8-246.9-151.6-270.1-162.1c-62-31.6-106-81.7-121.5-141c-9-35.6-12.9-196.4-10.3-456l2.6-403.3l-59.5-205.6
		C60.3,5943.7,12.5,5638,2.1,5192.5c-14.2-560.1,41.4-960.7,215.9-1545.9l54.3-180.6l-20.7-83c-10.3-44.8-25.9-155.5-33.6-246.4
		s-19.4-222.7-27.1-292.6c-11.6-116-10.3-164.7,9-259.6c6.5-30.3,140.9-185.8,161.6-185.8c6.5,0,76.3-44.8,155.1-98.8
		s146.1-98.8,148.6-98.8c3.9,0,12.9-6.6,22-14.5c37.5-32.9,277.9-199,315.4-217.5c47.8-23.7,134.4-108.1,243-235.9
		c139.6-166.1,383.9-420.4,451.1-471.8c36.2-27.7,78.8-63.3,94.4-79.1c41.4-42.2,65.9-61.9,76.3-61.9c5.2,0,20.7-13.2,36.2-29
		c41.4-43.5,96.9-89.6,108.6-89.6c5.2,0,34.9-21.1,65.9-46.1c31-25,62-46.1,67.2-46.1c6.5,0,29.7-17.1,54.3-39.5
		c24.6-21.1,58.2-44.8,75-52.7s49.1-25,69.8-38.2c22-13.2,62-36.9,90.5-54c89.2-50.1,231.4-134.4,265-156.8
		c18.1-10.5,34.9-21.1,38.8-21.1c9-1.3,81.4-35.6,265-126.5c288.2-141,554.5-242.5,804-308.4c349-89.6,576.5-110.7,1225.3-112
		C5657-1.2,5786.3,10.6,6137.9,95c143.5,35.6,387.8,110.7,458.9,141c14.2,6.6,46.5,18.5,71.1,27.7
		c175.8,61.9,590.7,263.6,820.8,399.3c144.8,85.7,369.7,230.6,381.3,245.1c3.9,5.3,27.1,23.7,51.7,40.9s47.8,35.6,51.7,39.5
		c10.3,11.9,106,84.3,130.5,98.8c62,36.9,266.3,235.9,489.9,477.1c182.2,196.4,212,229.3,302.5,353.2
		c47.8,65.9,94.4,127.8,103.4,139.7c53,65.9,408.4,633.9,408.4,651c0,4,29.7,54,67.2,110.7c43.9,68.5,84,114.7,115,131.8
		c67.2,39.5,205.5,172.6,205.5,199c0,11.9-16.8,69.8-37.5,127.8l-38.8,106.7l25.9,47.4c12.9,26.4,36.2,68.5,49.1,93.6
		c14.2,26.4,31,54,37.5,63.3c7.8,9.2,36.2,60.6,63.3,114.7c28.4,54,77.6,148.9,109.9,210.9c31,61.9,64.6,133.1,73.7,158.1
		c10.3,25,27.1,69.8,40.1,100.2c38.8,87,58.2,260.9,37.5,325.5c-18.1,60.6-71.1,147.6-113.7,185.8c-14.2,14.5-27.1,29-27.1,34.3
		c0,5.3,38.8,35.6,85.3,65.9c144.8,97.5,139.6,73.8,135.7,672.1l-2.6,507.4l-36.2,59.3c-19.4,32.9-77.6,94.9-130.5,138.4
		c-53,43.5-135.7,119.9-183.5,168.7c-69.8,72.5-90.5,104.1-111.2,171.3c-34.9,109.4-91.8,270.2-112.5,318.9
		c-9,22.4-32.3,73.8-50.4,116s-33.6,79.1-33.6,81.7c0,4-38.8,88.3-86.6,188.5c-85.3,177.9-213.3,402-321.8,564.1
		c-93.1,138.4-103.4,167.4-120.2,361.1c-9,97.5-24.6,196.4-36.2,220.1c-10.3,22.4-102.1,125.2-204.2,226.7L8620.9,8764h-113.7
		c-62,0-120.2,5.3-128,10.5c-7.8,5.3-34.9,43.5-62,85.7c-62,96.2-140.9,152.9-223.6,160.8c-86.6,9.2-106,17.1-165.4,65.9
		c-115,94.9-457.6,313.7-639.8,408.5c-408.4,212.2-639.8,301.8-1059.9,412.5c-87.9,23.7-129.3,31.6-329.6,68.5
		c-140.9,25-237.8,39.5-271.4,39.5c-31,0-117.6,42.2-135.7,65.9c-10.3,13.2-146.1,98.8-174.5,110.7
		C5207.2,10236.1,5004.3,10254.5,4922.9,10226.9z M5249.9,9979.1c113.7-55.4,193.9-133.1,244.3-237.2
		c38.8-79.1,42.7-98.8,42.7-206.9c0-102.8-5.2-127.8-36.2-193.7c-81.4-168.7-222.3-262.3-411-271.5c-187.4-9.2-327,51.4-427.8,188.5
		c-162.9,218.8-106,528.5,124.1,684C4928,10038.4,5098.7,10051.6,5249.9,9979.1z M4221,9608.8c56.9-27.7,81.4-59.3,81.4-110.7
		c0-42.2-20.7-58-98.2-75.1c-228.8-51.4-303.8-305.7-140.9-474.4c60.8-63.3,62-65.9,40.1-90.9c-12.9-14.5-51.7-32.9-86.6-40.9
		c-221-54-444.6,179.2-399.4,419.1c14.2,83,33.6,126.5,86.6,203C3811.3,9591.6,4072.4,9677.3,4221,9608.8z M6109.4,9599.5
		c34.9-23.7,38.8-90.9,6.5-126.5c-46.5-52.7-146.1-10.5-146.1,64.6C5969.8,9610.1,6046.1,9644.4,6109.4,9599.5z M6700.1,9517.8
		c43.9-22.4,200.3-143.6,708.3-546.9l346.4-275.4L7910,8764c85.3,36.9,165.4,65.9,179.7,63.3c12.9-2.6,84-64.6,159-137.1
		l135.7-134.4l-51.7-23.7l-51.7-23.7l-106,58l-107.3,58l-148.6-68.5c-81.4-38.2-156.4-68.5-165.4-68.5c-11.6,0-6.5-11.9,11.6-31.6
		l29.7-32.9l-98.2-129.2l-96.9-129.2l65.9-68.5c37.5-38.2,73.7-69.8,81.4-69.8s59.5,56.7,115,125.2
		c55.6,68.5,103.4,125.2,107.3,125.2c2.6,0,34.9-25,69.8-55.4l63.3-54l-23.3-35.6c-11.6-18.5-85.3-116-164.2-214.8L7773,7734.7
		L7573.9,7939c-142.2,147.6-196.5,212.2-192.6,229.3c3.9,13.2,51.7,84.3,106,156.8c55.6,73.8,96.9,141,91.8,147.6
		c-3.9,7.9-104.7,90.9-223.6,184.5c-118.9,93.6-280.5,222.7-359.3,287.3c-178.4,145-541.6,437.5-577.8,467.8l-28.4,22.4l32.3,34.3
		C6497.2,9552.1,6599.3,9569.2,6700.1,9517.8z M3291.7,9317.5c16.8-26.4,28.4-63.3,28.4-93.6c0-60.6-38.8-154.2-78.8-192.4
		c-16.8-15.8-164.2-106.7-328.3-201.6c-567.4-332.1-878.9-562.7-1221.5-902.8c-146.1-146.3-171.9-164.7-228.8-164.7
		c-109.9,0-170.6,154.2-106,263.6c37.5,60.6,439.5,469.2,586.8,594.4c147.4,126.5,333.5,266.2,515.7,387.5
		c148.6,100.2,581.6,340,664.4,369C3185.7,9399.2,3251.6,9375.5,3291.7,9317.5z M6552.8,9205.5c51.7-43.5,109.9-90.9,129.3-105.4
		c202.9-152.9,748.4-607.5,748.4-626c0-5.3-15.5-29-33.6-51.4c-32.3-40.9-33.6-40.9-63.3-18.5c-285.7,226.7-974.6,800-981,815.8
		c-3.9,10.5-7.8,50.1-7.8,87v65.9l56.9-44.8C6432.6,9304.3,6499.8,9249,6552.8,9205.5z M5973.7,9085.6c22-27.7,58.2-55.4,78.8-64.6
		l37.5-17.1l-46.5-22.4c-24.6-11.9-59.5-42.2-76.3-67.2c-16.8-23.7-32.3-44.8-36.2-44.8c-3.9,1.3-18.1,19.8-32.3,43.5
		c-14.2,23.7-49.1,54-76.3,67.2l-50.4,25l46.5,23.7c24.6,13.2,59.5,42.2,76.3,63.3c15.5,22.4,31,39.5,33.6,39.5
		C5929.8,9133,5950.5,9111.9,5973.7,9085.6z M3479.1,8845.7c50.4-48.8,49.1-119.9-2.6-164.7c-41.4-34.3-360.6-209.5-413.6-226.7
		c-94.4-29-175.8,138.4-100.8,206.9c34.9,31.6,290.8,176.6,371,209.5C3400.2,8898.4,3428.7,8893.2,3479.1,8845.7z M5465.8,8599.3
		c614-81.7,1158.1-309.7,1667.4-695.8c156.4-118.6,484.7-446.8,637.2-635.2c580.4-719.6,871.2-1697.4,778.1-2610.7
		c-72.4-702.4-321.8-1315.2-767.8-1889.8c-122.8-158.1-402-450.7-537.7-562.7c-431.7-355.8-1034-647.1-1558.8-755.1
		c-164.2-32.9-489.9-65.9-657.9-65.9c-164.2,0-493.8,32.9-661.8,65.9c-542.9,106.7-1083.2,363.7-1558.8,740.6
		c-165.4,131.8-444.6,411.2-563.6,564.1c-337.4,433.6-603.6,992.4-716.1,1502.4c-64.6,295.2-73.7,386.1-73.7,764.4
		c0,380.9,11.6,494.2,85.3,800c227.5,954.1,823.4,1784.4,1639,2279.9C3658.8,8395,4179.7,8569,4729,8619
		C4900.9,8634.9,5273.2,8624.3,5465.8,8599.3z M8685.5,8445.1c77.6-73.8,138.3-135.7,134.4-139.7c-2.6-2.6-50.4,19.8-104.7,50.1
		l-98.2,55.4l-183.5-85.7c-99.5-46.1-195.2-89.6-212-93.6c-32.3-10.5-69.8,11.9-193.9,121.2c-87.9,79.1-87.9,84.3-9,134.4l43.9,27.7
		l67.2-34.3c37.5-18.5,77.6-32.9,87.9-32.9c11.6,1.3,81.4,30.3,156.4,64.6c75,35.6,143.5,64.6,152.5,65.9
		C8536.9,8579.5,8607.9,8518.9,8685.5,8445.1z M2759.1,8459.6c82.7-51.4,122.8-176.6,80.1-250.4c-9-14.5-100.8-96.2-204.2-180.6
		c-221-179.2-245.6-201.6-438.2-383.5c-161.6-152.9-206.8-184.5-268.9-185.8c-47.8,0-121.5,58-155.1,122.6
		c-41.4,81.7-7.8,146.3,193.9,370.3c183.5,204.3,488.6,462.6,608.8,516.6C2635.1,8495.2,2710,8491.2,2759.1,8459.6z M8766.9,8189.4
		c36.2-11.9,73.7-23.7,82.7-26.4c10.3-2.6,15.5-43.5,15.5-143.6c0-76.4-2.6-138.4-6.5-138.4s-40.1,25-78.8,55.4
		c-50.4,38.2-85.3,55.4-113.7,55.4c-53,0-164.2-55.4-243-119.9c-50.4-42.2-64.6-64.6-89.2-142.3c-15.5-50.1-31-119.9-34.9-154.2
		c-2.6-35.6-9-63.3-14.2-61.9c-3.9,0-56.9,61.9-116.3,138.4c-125.4,159.5-125.4,151.6-9,270.2c50.4,51.4,117.6,94.9,285.7,183.2
		c121.5,63.3,228.8,112,237.8,109.4C8693.3,8211.8,8732,8200,8766.9,8189.4z M7765.2,7505.4l-3.9-109.4l-139.6,146.3l-139.6,147.6
		l3.9,110.7l2.6,109.4l139.6-147.6l139.6-147.6L7765.2,7505.4z M8719.1,7836.2c41.4-32.9,94.4-77.8,118.9-100.2
		c40.1-38.2,42.7-44.8,34.9-102.8c-11.6-83-53-167.4-93.1-185.8c-19.4-7.9-58.2-18.5-87.9-22.4c-59.5-7.9-96.9,11.9-224.9,123.9
		c-75,65.9-75,61.9-22,183.2c31,69.8,130.5,160.8,177.1,162.1C8633.8,7894.2,8676.5,7867.8,8719.1,7836.2z M1343.8,7622.7
		c130.5-83,265-170,298.6-193.7l62-42.2v-353.2v-351.9l-131.8-88.3c-173.2-113.3-487.3-307.1-500.2-307.1
		c-14.2,0-245.6,145-449.8,280.7l-171.9,114.7v354.5v355.8l146.1,90.9c323.1,204.3,469.2,291.3,488.6,292.6
		C1095.6,7775.6,1212,7707.1,1343.8,7622.7z M8349.4,7423.7l73.7,26.4l45.2-38.2c24.6-21.1,54.3-44.8,67.2-52.7
		c22-11.9,18.1-18.5-41.4-67.2l-65.9-52.7l-223.6-7.9c-124.1-4-226.2-5.3-228.8-2.6c-5.2,5.3,20.7,369,31,445.4l7.8,48.8
		l129.3-163.4l130.5-163.4L8349.4,7423.7z M9075.9,7340.7c50.4-60.6,173.2-280.7,192.6-347.9c12.9-40.9,11.6-51.4-10.3-75.1
		c-33.6-38.2-91.8-67.2-122.8-61.9c-19.4,2.6-56.9,64.6-142.2,230.6L8876.8,7313l29.7,27.7C8975,7407.9,9019,7407.9,9075.9,7340.7z
		 M8798,7002c94.4-189.8,196.5-419.1,196.5-442.8c0-17.1-125.4-88.3-153.8-88.3c-14.2,0-272.7,533.7-276.6,572
		c-1.3,19.8,16.8,38.2,68.5,69.8c38.8,23.7,73.7,43.5,78.8,43.5C8716.5,7156.2,8755.3,7086.3,8798,7002z M8642.8,6586.9
		c36.2-36.9,0-116-53-116c-33.6,0-73.7,36.9-73.7,67.2C8516.2,6590.8,8605.4,6625.1,8642.8,6586.9z M9450.7,6441.9
		c45.2-38.2,202.9-174,350.3-300.5l266.3-230.6v-462.6c0-424.4-1.3-463.9-22-482.3c-20.7-17.1-166.7-102.8-660.5-386.1
		c-116.3-65.9-134.4-73.8-155.1-58c-34.9,29-337.4,287.3-418.8,359.8l-75,64.6v113.3c0,312.3-36.2,586.5-113.7,867.2l-37.5,135.7
		l59.5,38.2c32.3,21.1,135.7,81.7,227.5,134.4c93.1,52.7,237.8,135.7,323.1,184.5c85.3,50.1,159,89.6,164.2,90.9
		C9364.1,6510.4,9405.5,6478.8,9450.7,6441.9z M679.4,6370.7c16.8-10.5,38.8-34.3,50.4-52.7c24.6-36.9,23.3-51.4-40.1-328.2
		c-51.7-229.3-53-230.6-152.5-230.6c-75,0-143.5,34.3-156.4,76.4c-9,26.4,65.9,386.1,99.5,483.7c10.3,29,31,60.6,49.1,69.8
		C564.4,6407.6,636.8,6399.7,679.4,6370.7z M1082.7,5858.1c103.4-54,68.5-217.5-46.5-217.5c-65.9,0-107.3,42.2-107.3,106.7
		c0,69.8,11.6,90.9,56.9,112C1036.2,5881.8,1038.8,5881.8,1082.7,5858.1z M550.2,5549.7c29.7-14.5,59.5-38.2,68.5-54
		c10.3-19.8,11.6-105.4,5.2-300.5c-12.9-398,15.5-664.2,113.7-1079.3c62-263.6,65.9-250.4-71.1-320.2c-115-58-118.9-56.7-156.4,65.9
		c-134.4,433.6-199.1,908-184.8,1364c9,279.4,16.8,301.8,100.8,332.1C484.2,5578.7,486.8,5578.7,550.2,5549.7z M1098.2,5300.6
		c33.6-36.9,33.6-42.2,41.4-293.9c5.2-141,19.4-332.1,32.3-427c12.9-93.6,19.4-185.8,15.5-204.3c-16.8-73.8-151.2-118.6-217.1-71.2
		c-43.9,30.3-54.3,61.9-82.7,228c-29.7,183.2-47.8,705.1-25.9,748.6C901.7,5357.3,1038.8,5369.1,1098.2,5300.6z M9956.1,4285.8
		c-62-203-387.8-789.4-452.4-815.8c-9-4-50.4,22.4-90.5,56.7c-69.8,60.6-73.7,61.9-90.5,38.2c-10.3-13.2-18.1-29-18.1-32.9
		c0-5.3,50.4-55.4,112.5-113.3c62-56.7,137-129.2,166.7-160.8l54.3-55.4l-71.1-65.9l-71.1-65.9l-104.7,88.3
		c-435.6,367.7-610.1,521.9-614,537.7c-5.2,21.1,75,137.1,95.6,138.4c6.5,0,54.3-35.6,104.7-77.8l90.5-77.8l155.1,212.2
		c84,117.3,179.7,250.4,212,295.2c56.9,80.4,58.2,81.7,289.5,192.4l232.7,112l10.3-64.6C9976.8,4376.8,9972.9,4343.8,9956.1,4285.8z
		 M9059.1,4329.3c10.3-18.5,37.5-46.1,63.3-61.9c29.7-18.5,38.8-30.3,25.9-34.3c-27.1-9.2-64.6-44.8-89.2-85.7l-22-36.9l-27.1,47.4
		c-15.5,25-42.7,52.7-60.8,61.9c-40.1,18.5-40.1,26.4-3.9,43.5c16.8,7.9,41.4,31.6,55.6,55.4
		C9031.9,4370.2,9037.1,4371.5,9059.1,4329.3z M1377.4,4011.7c19.4-31.6,19.4-38.2,2.6-69.8c-14.2-26.4-28.4-34.3-63.3-34.3
		s-49.1,7.9-63.3,34.3c-16.8,31.6-16.8,38.2,2.6,69.8c15.5,23.7,33.6,34.3,60.8,34.3S1361.9,4035.4,1377.4,4011.7z M1354.1,3600.5
		c108.6-75.1,228.8-167.4,266.3-204.3c60.8-61.9,72.4-85.7,135.7-258.3c63.3-175.3,67.2-189.8,45.2-203
		c-12.9-6.6-58.2-43.5-102.1-80.4c-42.7-38.2-171.9-146.3-285.7-239.9c-113.7-94.9-266.3-220.1-338.6-280.7L944.4,2226l-274,187.1
		c-149.9,102.8-277.9,197.7-285.7,210.9c-20.7,39.5,50.4,763.1,77.6,792c11.6,11.9,151.2,102.8,310.2,200.3l289.5,177.9l46.5-29
		C1134.4,3749.5,1244.3,3674.3,1354.1,3600.5z M8650.6,3691.5c27.1-30.3,23.3-64.6-7.8-85.7c-47.8-30.3-98.2,46.1-62,92.3
		C8602.8,3723.1,8624.8,3721.8,8650.6,3691.5z M9022.9,3272.4c50.4-42.2,103.4-85.7,117.6-97.5c25.9-21.1,25.9-22.4-5.2-65.9
		c-16.8-25-129.3-174-250.8-332.1c-120.2-158.1-248.2-325.5-283.1-371.6l-62-83l-112.5,92.3c-60.8,50.1-111.2,100.2-111.2,108.1
		c0,19.8,590.7,823.7,604.9,825C8925.9,3347.5,8972.5,3313.2,9022.9,3272.4z M1875,2841.4c20.7-29,20.7-31.6-19.4-69.8
		c-47.8-44.8-546.8-448.1-698-561.4c-72.4-55.4-107.3-73.8-125.4-68.5c-14.2,5.3-25.9,13.2-25.9,19.8
		c0,22.4,236.5,226.7,634.6,549.6c82.7,67.2,157.7,130.5,166.7,142.3C1829.8,2881,1849.2,2877,1875,2841.4z M8041.8,2653
		c43.9-34.3,168-133.1,274-220.1c107.3-88.3,249.5-203,318-254.4c68.5-52.7,131.8-105.4,140.9-116c12.9-15.8-1.3-40.9-78.8-141
		c-51.7-67.2-120.2-152.9-152.5-191.1l-58.2-67.2l-40.1,27.7c-20.7,15.8-126.7,100.2-235.2,187.1c-107.3,87-265,213.5-351.6,282
		c-217.1,172.6-208.1,158.1-147.4,235.9c27.1,35.6,93.1,122.6,146.1,192.4c53,69.8,98.2,126.5,100.8,126.5
		C7960.4,2714.9,7997.9,2687.3,8041.8,2653z M1912.5,2402.6c32.3-35.6,107.3-121.2,165.4-191.1c76.3-92.3,115-129.2,135.7-129.2
		c99.5,0,231.4-90.9,279.2-192.4c56.9-118.6,15.5-287.3-99.5-405.9c-85.3-87-156.4-118.6-277.9-123.9c-82.7-4-109.9,0-157.7,22.4
		c-112.5,56.7-188.7,172.6-188.7,288.6c0,27.7-9,52.7-25.9,65.9c-14.2,13.2-94.4,101.5-178.4,199L1411,2112.7l46.5,40.9
		c25.9,23.7,75,64.6,109.9,93.6l63.3,51.4l58.2-64.6c310.2-353.2,296-332.1,262.4-396.7c-33.6-64.6-33.6-113.3,0-184.5
		c65.9-141,257.2-150.2,345.1-15.8c59.5,92.3,34.9,218.8-53,275.4c-33.6,21.1-58.2,25-124.1,21.1c-82.7-4-85.3-2.6-122.8,42.2
		c-22,25-99.5,114.7-171.9,197.7c-73.7,84.3-133.1,159.5-133.1,167.4c0,17.1,128,123.9,148.6,123.9
		C1847.9,2464.5,1880.2,2436.9,1912.5,2402.6z M7765.2,2152.2c69.8-56.7,241.7-197.7,385.2-313.7l258.5-210.9l-24.6-32.9
		c-14.2-18.5-87.9-101.5-165.4-185.8c-125.4-137.1-147.4-154.2-209.4-172.6c-37.5-11.9-99.5-32.9-135.7-48.8l-67.2-26.4l-99.5,81.7
		c-54.3,44.8-130.5,108.1-170.6,139.7c-41.4,31.6-102.1,80.4-135.7,109.4c-72.4,61.9-77.6,46.1,75,241.2
		c149.9,191.1,226.2,295.2,226.2,307.1c0,6.6-7.8,19.8-16.8,27.7c-14.2,10.5-49.1-25-165.4-172.6
		c-81.4-102.8-164.2-213.5-186.1-243.8c-20.7-31.6-43.9-56.7-49.1-56.7c-5.2,0-28.4,17.1-50.4,38.2l-40.1,38.2l38.8,56.7
		c22,31.6,116.3,158.1,209.4,280.7s169.3,228,169.3,233.3C7611.4,2269.5,7647.6,2247.1,7765.2,2152.2z M2221.4,1808.2
		c34.9-44.8,32.3-97.5-7.8-146.3c-89.2-108.1-257.2,13.2-178.4,129.2c27.1,38.2,87.9,64.6,129.3,56.7
		C2181.4,1845.1,2207.2,1826.7,2221.4,1808.2z M2901.3,1356.2c73.7-108.1,50.4-286-47.8-373c-126.7-109.4-284.4-83-373.5,63.3
		c-20.7,35.6-49.1,54-130.5,87c-84,35.6-112.5,54-142.2,96.2c-20.7,29-37.5,56.7-37.5,60.6c0,5.3,31,15.8,68.5,25
		c36.2,7.9,100.8,39.5,142.2,68.5l73.7,51.4l55.6-61.9c131.8-148.9,219.7-238.5,230.1-231.9c25.9,15.8,7.8,56.7-63.3,137.1
		c-40.1,47.4-95.6,113.3-122.8,147.6l-49.1,60.6l28.4,55.4c15.5,29,31,81.7,34.9,116l6.5,61.9l146.1-155.5
		C2799.2,1478.8,2881.9,1385.2,2901.3,1356.2z M3383.4,1462.9c261.1-150.2,324.4-200.3,324.4-258.3c0-43.5-32.3-106.7-63.3-123.9
		c-65.9-35.6-118.9-14.5-427.8,168.7c-170.6,101.5-201.6,135.7-205.5,224c-1.3,58,3.9,75.1,29.7,101.5
		c18.1,18.5,45.2,32.9,60.8,32.9C3118.5,1607.9,3245.1,1542,3383.4,1462.9z M6822.9,1443.2c80.1-42.2,104.7-146.3,47.8-201.6
		c-63.3-60.6-411-209.5-695.4-297.8c-306.3-93.6-853.1-184.5-928.1-152.9c-37.5,15.8-78.8,80.4-78.8,125.2
		c0,31.6,36.2,96.2,62,110.7c11.6,6.6,100.8,22.4,196.5,34.3c387.8,48.8,757.4,151.6,1124.5,309.7
		C6798.4,1477.4,6771.2,1470.8,6822.9,1443.2z M7289.5,1151.9c45.2-23.7,80.1-96.2,68.5-142.3c-12.9-52.7-67.2-93.6-276.6-204.3
		C6346,416.5,5681.6,257.1,4890.6,280.8c-491.2,14.5-902.2,90.9-1337.8,249.1c-177.1,63.3-447.2,192.4-487.3,233.3
		c-53,52.7-32.3,170,36.2,206.9c53,27.7,63.3,25,221-48.8c577.8-268.8,1134.9-380.9,1812.2-363.7
		c650.2,15.8,1177.5,158.1,1817.3,486.3c138.3,71.2,262.4,129.2,275.3,129.2C7240.4,1173,7268.9,1163.8,7289.5,1151.9z M4193.9,1119
		c16.8-15.8,37.5-52.7,45.2-79.1c20.7-65.9-14.2-138.4-81.4-174c-59.5-30.3-111.2-21.1-164.2,29c-72.4,68.5-62,188.5,22,242.5
		C4063.3,1169.1,4151.2,1159.8,4193.9,1119z M4911.2,937.1c46.5-47.4,47.8-79.1,3.9-131.8c-75-92.3-204.2-5.3-161.6,108.1
		C4779.4,981.9,4855.7,992.5,4911.2,937.1z"/>
	<path d="M4920.3,9815.7c-3.9-38.2-7.8-43.5-38.8-40.9c-29.7,1.3-36.2-2.6-36.2-30.3c0-25,6.5-31.6,32.3-31.6h32.3v-172.6v-172.6
		l-32.3,7.9c-28.4,7.9-32.3,4-32.3-30.3c0-34.3,3.9-39.5,34.9-36.9c28.4,2.6,37.5-4,40.1-26.4c6.5-43.5,54.3-40.9,54.3,2.6
		c0,48.8,49.1,46.1,54.3-2.6c2.6-22.4,12.9-38.2,27.1-40.9c16.8-4,22,4,22,35.6c0,39.5,2.6,40.9,53,40.9c63.3,0,128,56.7,128,112
		c0,42.2-33.6,112-54.3,112c-7.8,0-5.2,10.5,6.5,23.7c12.9,14.5,22,46.1,22,76.4c0,42.2-7.8,60.6-38.8,90.9
		c-22,21.1-55.6,39.5-75,40.9c-29.7,1.3-34.9,6.6-34.9,39.5c-1.3,29-7.8,39.5-29.7,42.2c-24.6,4-27.1,0-20.7-35.6
		c7.8-36.9,5.2-40.9-25.9-40.9c-28.4,0-33.6,5.3-33.6,39.5c0,30.3-6.5,39.5-24.6,39.5C4930.6,9857.9,4922.9,9847.3,4920.3,9815.7z
		 M5150.4,9664.1c14.2-55.4-7.8-76.4-90.5-80.4l-72.4-4v60.6v59.3h77.6C5137.4,9699.7,5142.6,9697.1,5150.4,9664.1z M5155.5,9495.4
		c18.1-11.9,16.8-76.4-2.6-96.2c-9-9.2-49.1-15.8-90.5-15.8h-75v56.7c0,31.6,3.9,61.9,10.3,67.2
		C5008.2,9519.2,5133.6,9508.6,5155.5,9495.4z"/>
	<path d="M4683.8,8095.8c-168-129.2-301.2-254.4-417.5-392.7c-113.7-135.7-248.2-324.2-248.2-349.2c0-19.8,367.1-75.1,656.6-98.8
		l106-7.9v454.7c0,250.4-3.9,456-9,454.7C4765.2,8156.5,4726.4,8128.8,4683.8,8095.8z"/>
	<path d="M5234.4,8043.1c-1.3-64.6,1.3-268.8,6.5-456l9-341.3l91.8,9.2c265,25,548,65.9,645,93.6c19.4,6.6,12.9,21.1-41.4,101.5
		c-108.6,159.5-224.9,300.5-352.9,425.7c-112.5,110.7-321.8,282-346.4,282C5240.8,8157.8,5235.7,8106.4,5234.4,8043.1z"/>
	<path d="M5982.8,8057.6c0-5.3,47.8-59.3,107.3-122.6c90.5-97.5,197.8-233.3,328.3-419.1l31-42.2l118.9,43.5
		c65.9,25,146.1,55.4,181,69.8l60.8,25l-144.8,97.5c-122.8,81.7-404.6,235.9-505.4,276.8c-15.5,5.3-62,26.4-102.1,44.8
		C6016.4,8049.7,5982.8,8061.6,5982.8,8057.6z"/>
	<path d="M3914.7,8007.5c-231.4-101.5-520.9-259.6-651.4-355.8l-64.6-46.1l38.8-14.5c20.7-7.9,103.4-38.2,183.5-65.9l144.8-51.4
		l126.7,174c69.8,96.2,175.8,225.4,234,289.9c59.5,63.3,102.1,114.7,96.9,113.3C4016.8,8051,3967.7,8031.3,3914.7,8007.5z"/>
	<path d="M3061.6,7172c-160.3-181.9-332.2-444.1-436.9-662.9c-42.7-89.6-107.3-246.4-144.8-346.6c-36.2-101.5-72.4-195-78.8-208.2
		c-18.1-34.3-81.4-63.3-139.6-63.3c-42.7,0-60.8,9.2-95.6,44.8c-73.7,75.1-72.4,133.1,9,363.7c93.1,262.3,249.5,560.1,404.6,768.3
		c31,40.9,53,75.1,46.5,75.1c-29.7-1.3-292.1-387.5-396.8-583.8c-125.4-237.2-271.4-639.2-298.6-828.9l-9-63.3h502.8h504.1
		l15.5,109.4c54.3,363.7,213.3,877.7,371,1196.6c24.6,50.1,43.9,92.3,43.9,96.2c0,2.6-47.8,25-106,48.8
		c-59.5,23.7-118.9,50.1-133.1,60.6C3088.7,7199.7,3084.9,7199.7,3061.6,7172z"/>
	<path d="M6894,7170.7c-7.8-5.3-63.3-30.3-124.1-55.4l-112.5-43.5l32.3-73.8c104.7-231.9,148.6-344,208.1-527.2
		c77.6-241.2,134.4-466.5,165.4-661.6l22-142.3h502.8c487.3,0,501.5,1.3,501.5,25c0,50.1-77.6,326.8-126.7,456
		c-116.3,301.8-227.5,521.9-359.3,714.3c-102.1,150.2-202.9,282-208.1,275.4c-3.9-2.6,16.8-36.9,45.2-76.4
		c149.9-201.6,329.6-558.8,414.9-821c63.3-193.7,62-238.5-7.8-305.7c-50.4-50.1-120.2-58-184.8-23.7c-46.5,25-55.6,42.2-148.6,289.9
		c-130.5,346.6-307.6,669.5-491.2,893.5C6954.8,7177.3,6921.2,7197,6894,7170.7z"/>
	<path d="M3738.9,6817.5c-152.5-330.8-276.6-751.2-321.8-1087.3l-7.8-63.3h685.1h686.3v558.8v560.1l-54.3,6.6
		c-31,4-107.3,10.5-171.9,14.5c-162.9,10.5-424,52.7-606.2,97.5l-152.5,38.2L3738.9,6817.5z M4292.1,6174.4l55.6-22.4l-51.7-25
		c-28.4-13.2-72.4-48.8-98.2-77.8l-45.2-54l-42.7,55.4c-24.6,30.3-65.9,64.6-94.4,77.8l-51.7,22.4l60.8,30.3
		c32.3,15.8,73.7,48.8,93.1,73.8l33.6,44.8l42.7-51.4C4218.4,6220.5,4262.4,6187.5,4292.1,6174.4z"/>
	<path d="M6118.5,6917.7c-126.7-35.6-424-85.7-601-102.8c-81.4-7.9-179.7-18.5-217.1-22.4l-68.5-7.9l6.5-482.3
		c3.9-266.2,6.5-517.9,6.5-558.8l1.3-76.4h678.6c637.2,0,678.6,1.3,678.6,23.7c0,43.5-38.8,246.4-76.3,404.6
		c-67.2,278.1-235.2,742-296,818.4l-22,27.7L6118.5,6917.7z M5972.4,6177l65.9-32.9l-42.7-9.2c-27.1-6.6-65.9-32.9-102.1-72.5
		l-59.5-63.3l-49.1,58c-32.3,36.9-67.2,63.3-100.8,73.8l-53,15.8l56.9,29c29.7,15.8,75,50.1,99.5,76.4l45.2,47.4l36.2-44.8
		C5889.7,6229.7,5936.2,6194.1,5972.4,6177z"/>
	<path d="M1859.5,5021.2v-184.5H2383l523.5,1.3v183.2v184.5H2383h-523.5V5021.2z"/>
	<path d="M3384.7,5021.2v-184.5l695.4,2.6l694.1,4l3.9,181.9l3.9,180.5h-699.3h-698V5021.2z"/>
	<path d="M5240.8,5051.5c0-85.7,2.6-168.7,3.9-184.5l1.3-30.3h691.5H6629v184.5v184.5h-695.4h-695.4L5240.8,5051.5z"/>
	<path d="M7107.3,5021.2v-184.5h517h517v184.5v184.5h-517h-517V5021.2z"/>
	<path d="M1919,4359.6c51.7-289.9,161.6-597,325.7-898.8c94.4-175.3,371-573.3,386.5-556.1c2.6,2.6-20.7,42.2-54.3,88.3
		c-205.5,283.3-443.3,780.2-456.3,948.9c-5.2,67.2-2.6,77.8,36.2,121.2c65.9,76.4,162.9,79.1,231.4,4
		c14.2-15.8,55.6-102.8,91.8-192.4c94.4-235.9,195.2-437.5,296-594.4c90.5-142.3,293.4-407.2,310.2-407.2
		c10.3,0,263.7,93.6,271.4,100.2c2.6,1.3-28.4,73.8-67.2,159.5c-94.4,208.2-190,473.1-246.9,682.7
		c-42.7,160.8-111.2,503.4-111.2,561.4c0,23.7-14.2,25-510.6,25h-509.3L1919,4359.6z"/>
	<path d="M3415.8,4339.9c53-386.1,181-838.2,320.6-1132.1c59.5-123.9,54.3-121.2,186.1-89.6c130.5,30.3,475.7,80.4,678.6,98.8
		l179.7,15.8V3818v583.8h-686.3H3408L3415.8,4339.9z M4188.7,3988c19.4-23.7,64.6-59.3,102.1-79.1c53-26.4,62-35.6,42.7-40.9
		c-58.2-18.5-115-55.4-144.8-93.6l-32.3-42.2l-62,64.6c-41.4,43.5-72.4,64.6-94.4,64.6c-54.3,0-47.8,19.8,19.4,51.4
		c40.1,18.5,75,47.4,93.1,75.1c15.5,23.7,31,44.8,34.9,44.8C4151.2,4032.8,4169.3,4013,4188.7,3988z"/>
	<path d="M5242.1,4392.6c-2.6-6.6-2.6-270.2,1.3-586.5c6.5-577.2,6.5-577.2,33.6-577.2c124.1,0,517-51.4,767.8-101.5
		c94.4-18.5,173.2-31.6,175.8-29c9,11.9,126.7,280.7,161.6,371.6c89.2,229.3,206.8,693.2,223.6,879l3.9,46.1l-681.2,4
		C5553.6,4400.5,5244.7,4397.9,5242.1,4392.6z M5853.5,4022.3c0-22.4,95.6-108.1,138.3-123.9c53-19.8,54.3-31.6,2.6-42.2
		c-23.3-4-64.6-32.9-98.2-65.9l-56.9-58l-60.8,61.9c-38.8,39.5-77.6,65.9-106,71.2l-43.9,9.2l68.5,34.3c36.2,18.5,81.4,54,99.5,79.1
		C5829,4030.2,5853.5,4046,5853.5,4022.3z"/>
	<path d="M7063.3,4247.6c-56.9-375.6-178.4-771-350.3-1146.6c-32.3-69.8-56.9-127.8-55.6-129.2c2.6-1.3,45.2-18.5,94.4-36.9
		c50.4-18.5,109.9-40.9,133.1-51.4c41.4-15.8,43.9-15.8,87.9,35.6c84,97.5,235.2,307.1,310.2,430.9
		c81.4,135.7,148.6,275.4,249.5,524.5c71.1,174,111.2,230.6,170.6,243.8c49.1,10.5,116.3-11.9,153.8-52.7
		c41.4-44.8,49.1-145,19.4-228c-107.3-291.3-277.9-626-424-827.6c-69.8-97.5-81.4-117.3-63.3-105.4c24.6,14.5,230.1,299.2,306.3,423
		c91.8,147.6,252,482.3,296,612.8c37.5,114.7,91.8,324.2,104.7,405.9l9,55.4h-509.3h-509.3L7063.3,4247.6z"/>
	<path d="M4703.1,2770.3c-182.3-10.5-685.1-80.4-685.1-96.2c0-18.5,187.4-272.8,293.4-396.7c59.5-69.8,147.4-162.1,195.2-205.6
		c117.6-104.1,252-213.5,263.7-213.5c12.9,0,12.9,906.7,1.3,912C4765.2,2772.9,4735.5,2772.9,4703.1,2770.3z"/>
	<path d="M5238.3,2316.9c-1.3-251.7,0-458.6,3.9-458.6c3.9,0,56.9,39.5,118.9,88.3c197.8,158.1,424,405.9,580.4,635.2
		c37.5,54,65.9,98.8,63.3,101.5c-14.2,15.8-473.1,73.8-694.1,88.3l-71.1,4L5238.3,2316.9z"/>
	<path d="M6387.3,2493.5c-32.3-48.8-80.1-117.3-106-154.2c-60.8-88.3-157.7-209.5-236.5-293.9c-36.2-38.2-62-72.5-59.5-75.1
		c7.8-9.2,279.2,114.7,424,193.7c135.7,73.8,413.6,257,413.6,272.8c0,5.3-19.4,15.8-41.4,23.7c-23.3,7.9-107.3,38.2-187.4,68.5
		l-144.8,52.7L6387.3,2493.5z"/>
	<path d="M3455.8,2534.4c-49.1-18.5-129.3-47.4-178.4-65.9c-50.4-19.8-82.7-38.2-78.8-46.1c16.8-27.7,285.7-197.7,431.7-274.1
		c165.4-85.7,389.1-187.1,396.8-179.2c2.6,2.6-23.3,36.9-58.2,75.1c-128,146.3-213.3,257-301.2,388.8
		c-49.1,75.1-96.9,137.1-106,135.7C3554.1,2568.6,3506.2,2552.8,3455.8,2534.4z"/>
	<path d="M884.9,7382.9l-188.7-126.5v-203c0-110.7,5.2-213.5,12.9-226.7c10.3-19.8,350.3-263.6,368.4-263.6c3.9,0,46.5,26.4,94.4,58
		c47.8,31.6,131.8,85.7,187.4,119.9l99.5,63.3v228c0,220.1-1.3,226.7-28.4,245.1c-16.8,11.9-103.4,67.2-192.6,126.5l-162.9,105.4
		L884.9,7382.9z M1222.3,7323.6l152.5-96.2l3.9-199l3.9-200.3l-62-35.6c-34.9-19.8-103.4-64.6-153.8-98.8l-90.5-61.9l-128,84.3
		c-71.1,46.1-139.6,88.3-151.2,92.3c-20.7,6.6-23.3,27.7-23.3,210.9v203l146.1,97.5c78.8,54,146.1,98.8,147.4,98.8
		C1067.2,7419.8,1137,7376.3,1222.3,7323.6z"/>
	<path d="M9043.5,6096.6l-191.3-106.7v-454.7v-454.7l29.7-18.5c15.5-10.5,102.1-73.8,191.3-142.3c90.5-67.2,169.3-122.6,177.1-122.6
		c12.9,0,280.5,142.3,426.5,226.7l67.2,38.2v384.8l-1.3,384.8l-192.6,156.8c-222.3,180.5-276.6,218.8-299.9,217.5
		C9241.3,6204.7,9148.2,6155.9,9043.5,6096.6z M9304.6,5950.3c0-58,1.3-58,54.3-73.8c175.8-47.4,248.2-150.2,199.1-282
		c-12.9-31.6-33.6-61.9-46.5-65.9c-22-6.6-18.1-15.8,32.3-64.6c55.6-52.7,58.2-59.3,58.2-129.2c0-127.8-77.6-204.3-219.7-217.5
		l-76.3-7.9l-3.9-54c-3.9-52.7-5.2-54-51.7-58l-49.1-4v59.3v60.6h-121.5c-131.8,0-137,2.6-137,79.1c0,34.3,5.2,38.2,49.1,42.2
		l47.8,4l3.9,271.5l2.6,272.8l-45.2,7.9c-42.7,9.2-45.2,11.9-45.2,63.3v54l122.8-7.9l122.8-7.9v58v59.3h51.7h51.7V5950.3z"/>
	<path d="M9185.7,5751.3c-6.5-5.3-10.3-50.1-10.3-100.2v-89.6h68.5c94.4,0,130.5,22.4,135.7,80.4c5.2,63.3-37.5,102.8-121.5,112
		C9223.2,5757.9,9190.9,5757.9,9185.7,5751.3z"/>
	<path d="M9175.4,5344.1v-98.8h78.8c112.5,0,165.4,35.6,166.7,109.4c0,64.6-38.8,88.3-148.6,88.3h-96.9V5344.1z"/>
	<path d="M9495.9,3651.9c64.6-63.3,94.4-80.4,91.8-56.7c0,10.5-126.7,112-147.4,118.6C9433.9,3716.5,9458.5,3687.5,9495.9,3651.9z"
		/>
	<path d="M864.3,3405.5c-109.9-76.4-206.8-142.3-215.9-147.6c-10.3-6.6-25.9-105.4-42.7-272.8c-14.2-143.6-25.9-263.6-25.9-264.9
		s76.3-52.7,314.1-206.9c62-40.9,112.5-69.8,112.5-64.6c0,9.2-155.1,114.7-294.7,200.3c-56.9,35.6-68.5,48.8-62,71.2
		c3.9,14.5,12.9,110.7,20.7,212.2c22,293.9,0,253,213.3,398l186.1,126.5l94.4-58c51.7-31.6,146.1-93.6,210.7-138.4l116.3-79.1
		l3.9-147.6l3.9-147.6l-112.5-88.3c-231.4-183.2-306.3-249.1-333.5-293.9l-27.1-46.1l78.8,59.3c43.9,32.9,168,126.5,275.3,209.5
		l195.2,150.2v75.1c0,40.9-3.9,119.9-7.8,175.3l-9,100.2l-241.7,159.5c-134.4,87-245.6,158.1-248.2,156.8
		C1067.2,3543.9,974.1,3481.9,864.3,3405.5z"/>
	<path d="M7960.4,2512c0-10.5,33.6-47.4,75-83c99.5-88.3,140.9-114.7,151.2-97.5c11.6,21.1,2.6,31.6-103.4,119.9
		C7986.2,2531.7,7960.4,2544.9,7960.4,2512z"/>
</g>
</svg>
